# xmcd
#
# Track frame offsets:
#	150
#	21237
#	28247
#	39312
#	56267
#	67425
#	82975
#	95905
#	110000
#	122730
#	160107
#	179175
#	206722
#	219720
#	238335
#	253307
#	266130
#	277132
#	287527
#	301787
#
# Disc length: 4241 seconds
#
# Revision: 1
# Processed by: cddbd v1.5.1PL0 Copyright (c) Steve Scherf et al.
# Submitted via: CDex 1.50Beta5
#
DISCID=41108f14
DTITLE=HOLLY COLE他 - JAZZ VOCAL
DYEAR=1900
DGENRE=Jazz
TTITLE0=HOLLY COLE/CALLING YOY
TTITLE1=RACHELL FERREIE/WHAT IS THIS THING CALLED LOVE
TTITLE2=NATALIE COLE/INSEPARABLE
TTITLE3=DIANNE REVES/LOVE FOR SALE
TTITLE4=PEGGY LEE/UNFORGETTABLE
TTITLE5=TIMI YURO/STARDUST
TTITLE6=JULIE LONDON/CRY ME A RIVER
TTITLE7=JUNE CHRISTY/MISTY
TTITLE8=NANCY WILSON/FLy me to the moon
TTITLE9=RACHELL FERRELL/AUTUMN LEAVES
TTITLE10=HOLLY COLE/I CAN CLEARLY NOW
TTITLE11=CASSANNDRA WILSON/YOU DON’T KNOW WHAT LOVE IS
TTITLE12=JULIE LONDON/LOVELETTERS
TTITLE13=DIANNE REVES/HOW HIGH THE MOON
TTITLE14=JO STAFORD/BEGIN THE BEGUIN
TTITLE15=JULIE LONDON/I LEFT MY HEART IN SAN FRACISCO
TTITLE16=HOLLY COLE/DON’T SMOKE IN BED
TTITLE17=JO STAFORD&GORDON MACRAE/TEA FOR TWO
TTITLE18=NATALIE COLE/STAIRWAY TO THE STARS
TTITLE19=DINAH SHORE/LOVER COME BACK TO ME
EXTD=
EXTT0=
EXTT1=
EXTT2=
EXTT3=
EXTT4=
EXTT5=
EXTT6=
EXTT7=
EXTT8=
EXTT9=
EXTT10=
EXTT11=
EXTT12=
EXTT13=
EXTT14=
EXTT15=
EXTT16=
EXTT17=
EXTT18=
EXTT19=
PLAYORDER=
